G04 #@! TF.GenerationSoftware,KiCad,Pcbnew,8.0.0*
G04 #@! TF.CreationDate,2024-03-09T16:45:53+00:00*
G04 #@! TF.ProjectId,ibm-model-m-flex-ribbon-cable,69626d2d-6d6f-4646-956c-2d6d2d666c65,rev?*
G04 #@! TF.SameCoordinates,Original*
G04 #@! TF.FileFunction,Legend,Top*
G04 #@! TF.FilePolarity,Positive*
%FSLAX46Y46*%
G04 Gerber Fmt 4.6, Leading zero omitted, Abs format (unit mm)*
G04 Created by KiCad (PCBNEW 8.0.0) date 2024-03-09 16:45:53*
%MOMM*%
%LPD*%
G01*
G04 APERTURE LIST*
G04 Aperture macros list*
%AMFreePoly0*
4,1,24,0.375000,-0.621100,0.800000,-0.871100,0.800000,-2.871100,1.650000,-2.871100,1.721523,-2.873644,1.858776,-2.913945,1.979114,-2.991282,2.072790,-3.099390,2.132213,-3.229509,2.152571,-3.371100,2.132213,-3.512691,2.072790,-3.642810,1.979114,-3.750918,1.858776,-3.828255,1.721523,-3.868556,1.650000,-3.871100,0.800000,-3.871100,0.800000,-7.771100,-0.800000,-7.771100,-0.800000,-0.871100,
-0.375000,-0.621100,-0.375000,0.621100,0.375000,0.621100,0.375000,-0.621100,0.375000,-0.621100,$1*%
%AMFreePoly1*
4,1,9,0.375000,-0.621100,0.800000,-0.871100,0.800000,-7.771100,-0.800000,-7.771100,-0.800000,-0.871100,-0.375000,-0.621100,-0.375000,0.621100,0.375000,0.621100,0.375000,-0.621100,0.375000,-0.621100,$1*%
%AMFreePoly2*
4,1,7,0.800000,0.720964,1.250000,-0.771236,-1.250000,-0.771236,-0.800000,0.720964,-0.800000,7.620964,0.800000,7.620964,0.800000,0.720964,0.800000,0.720964,$1*%
%AMFreePoly3*
4,1,24,0.375000,-0.621100,0.800000,-0.871100,0.800000,-7.771100,-0.800000,-7.771100,-0.800000,-3.871100,-1.650000,-3.871100,-1.721523,-3.868556,-1.858776,-3.828255,-1.979114,-3.750918,-2.072790,-3.642810,-2.132213,-3.512691,-2.152571,-3.371100,-2.132213,-3.229509,-2.072790,-3.099390,-1.979114,-2.991282,-1.858776,-2.913945,-1.721523,-2.873644,-1.650000,-2.871100,-0.800000,-2.871100,-0.800000,-0.871100,
-0.375000,-0.621100,-0.375000,0.621100,0.375000,0.621100,0.375000,-0.621100,0.375000,-0.621100,$1*%
G04 Aperture macros list end*
%ADD10C,0.150000*%
%ADD11FreePoly0,180.000000*%
%ADD12FreePoly1,180.000000*%
%ADD13FreePoly2,0.000000*%
%ADD14FreePoly3,180.000000*%
%ADD15FreePoly3,0.000000*%
%ADD16FreePoly1,0.000000*%
%ADD17FreePoly2,180.000000*%
%ADD18FreePoly0,0.000000*%
G04 APERTURE END LIST*
D10*
X227333333Y-59820180D02*
X227333333Y-59105895D01*
X227333333Y-59105895D02*
X227380952Y-58963038D01*
X227380952Y-58963038D02*
X227476190Y-58867800D01*
X227476190Y-58867800D02*
X227619047Y-58820180D01*
X227619047Y-58820180D02*
X227714285Y-58820180D01*
X226333333Y-58820180D02*
X226904761Y-58820180D01*
X226619047Y-58820180D02*
X226619047Y-59820180D01*
X226619047Y-59820180D02*
X226714285Y-59677323D01*
X226714285Y-59677323D02*
X226809523Y-59582085D01*
X226809523Y-59582085D02*
X226904761Y-59534466D01*
X70816666Y-106179819D02*
X70816666Y-106894104D01*
X70816666Y-106894104D02*
X70769047Y-107036961D01*
X70769047Y-107036961D02*
X70673809Y-107132200D01*
X70673809Y-107132200D02*
X70530952Y-107179819D01*
X70530952Y-107179819D02*
X70435714Y-107179819D01*
X71245238Y-106275057D02*
X71292857Y-106227438D01*
X71292857Y-106227438D02*
X71388095Y-106179819D01*
X71388095Y-106179819D02*
X71626190Y-106179819D01*
X71626190Y-106179819D02*
X71721428Y-106227438D01*
X71721428Y-106227438D02*
X71769047Y-106275057D01*
X71769047Y-106275057D02*
X71816666Y-106370295D01*
X71816666Y-106370295D02*
X71816666Y-106465533D01*
X71816666Y-106465533D02*
X71769047Y-106608390D01*
X71769047Y-106608390D02*
X71197619Y-107179819D01*
X71197619Y-107179819D02*
X71816666Y-107179819D01*
%LPC*%
D11*
X229750000Y-59675000D03*
D12*
X232350000Y-59675000D03*
D13*
X234950000Y-59444864D03*
D14*
X237550000Y-59675000D03*
D15*
X72750000Y-108864864D03*
D16*
X75350000Y-108864864D03*
D17*
X77950000Y-109095000D03*
D18*
X80550000Y-108864864D03*
%LPD*%
M02*
