%TF.GenerationSoftware,KiCad,Pcbnew,8.0.0*%
%TF.CreationDate,2024-03-09T16:47:25+00:00*%
%TF.ProjectId,ibm-model-m-flex-ribbon-cable,69626d2d-6d6f-4646-956c-2d6d2d666c65,rev?*%
%TF.SameCoordinates,Original*%
%TF.FileFunction,Drillmap*%
%TF.FilePolarity,Positive*%
%FSLAX45Y45*%
G04 Gerber Fmt 4.5, Leading zero omitted, Abs format (unit mm)*
G04 Created by KiCad (PCBNEW 8.0.0) date 2024-03-09 16:47:25*
%MOMM*%
%LPD*%
G01*
G04 APERTURE LIST*
%ADD10C,0.010000*%
%ADD11C,0.200000*%
G04 APERTURE END LIST*
D10*
X7070000Y-11665000D02*
G75*
G02*
X6995000Y-11590000I0J75000D01*
G01*
X22695000Y-5715000D02*
G75*
G02*
X22620000Y-5790000I-75000J0D01*
G01*
X22695000Y-5245000D02*
G75*
G02*
X22770000Y-5170000I75000J0D01*
G01*
X8295000Y-7165000D02*
G75*
G02*
X8370000Y-7090000I75000J0D01*
G01*
X7070000Y-11665000D02*
X8220000Y-11665000D01*
X8295000Y-11590000D02*
G75*
G02*
X8220000Y-11665000I-75000J0D01*
G01*
X6995000Y-6090000D02*
G75*
G02*
X7295000Y-5790000I300000J0D01*
G01*
X22695000Y-5245000D02*
X22695000Y-5715000D01*
X23995000Y-6790000D02*
X23995000Y-5245000D01*
X8370000Y-7090000D02*
X23695000Y-7090000D01*
X23920000Y-5170000D02*
G75*
G02*
X23995000Y-5245000I0J-75000D01*
G01*
X22770000Y-5170000D02*
X23920000Y-5170000D01*
X8295000Y-11590000D02*
X8295000Y-7165000D01*
X23995000Y-6790000D02*
G75*
G02*
X23695000Y-7090000I-300000J0D01*
G01*
X22620000Y-5790000D02*
X7295000Y-5790000D01*
X6995000Y-6090000D02*
X6995000Y-11590000D01*
D11*
X7255277Y-11976984D02*
X7255277Y-11776984D01*
X7255277Y-11776984D02*
X7302896Y-11776984D01*
X7302896Y-11776984D02*
X7331467Y-11786508D01*
X7331467Y-11786508D02*
X7350515Y-11805555D01*
X7350515Y-11805555D02*
X7360039Y-11824603D01*
X7360039Y-11824603D02*
X7369562Y-11862698D01*
X7369562Y-11862698D02*
X7369562Y-11891269D01*
X7369562Y-11891269D02*
X7360039Y-11929365D01*
X7360039Y-11929365D02*
X7350515Y-11948412D01*
X7350515Y-11948412D02*
X7331467Y-11967460D01*
X7331467Y-11967460D02*
X7302896Y-11976984D01*
X7302896Y-11976984D02*
X7255277Y-11976984D01*
X7455277Y-11976984D02*
X7455277Y-11843650D01*
X7455277Y-11881746D02*
X7464801Y-11862698D01*
X7464801Y-11862698D02*
X7474324Y-11853174D01*
X7474324Y-11853174D02*
X7493372Y-11843650D01*
X7493372Y-11843650D02*
X7512420Y-11843650D01*
X7579086Y-11976984D02*
X7579086Y-11843650D01*
X7579086Y-11776984D02*
X7569562Y-11786508D01*
X7569562Y-11786508D02*
X7579086Y-11796031D01*
X7579086Y-11796031D02*
X7588610Y-11786508D01*
X7588610Y-11786508D02*
X7579086Y-11776984D01*
X7579086Y-11776984D02*
X7579086Y-11796031D01*
X7702896Y-11976984D02*
X7683848Y-11967460D01*
X7683848Y-11967460D02*
X7674324Y-11948412D01*
X7674324Y-11948412D02*
X7674324Y-11776984D01*
X7807658Y-11976984D02*
X7788610Y-11967460D01*
X7788610Y-11967460D02*
X7779086Y-11948412D01*
X7779086Y-11948412D02*
X7779086Y-11776984D01*
X8036229Y-11976984D02*
X8036229Y-11776984D01*
X8036229Y-11776984D02*
X8102896Y-11919841D01*
X8102896Y-11919841D02*
X8169562Y-11776984D01*
X8169562Y-11776984D02*
X8169562Y-11976984D01*
X8350515Y-11976984D02*
X8350515Y-11872222D01*
X8350515Y-11872222D02*
X8340991Y-11853174D01*
X8340991Y-11853174D02*
X8321943Y-11843650D01*
X8321943Y-11843650D02*
X8283848Y-11843650D01*
X8283848Y-11843650D02*
X8264801Y-11853174D01*
X8350515Y-11967460D02*
X8331467Y-11976984D01*
X8331467Y-11976984D02*
X8283848Y-11976984D01*
X8283848Y-11976984D02*
X8264801Y-11967460D01*
X8264801Y-11967460D02*
X8255277Y-11948412D01*
X8255277Y-11948412D02*
X8255277Y-11929365D01*
X8255277Y-11929365D02*
X8264801Y-11910317D01*
X8264801Y-11910317D02*
X8283848Y-11900793D01*
X8283848Y-11900793D02*
X8331467Y-11900793D01*
X8331467Y-11900793D02*
X8350515Y-11891269D01*
X8445753Y-11843650D02*
X8445753Y-12043650D01*
X8445753Y-11853174D02*
X8464801Y-11843650D01*
X8464801Y-11843650D02*
X8502896Y-11843650D01*
X8502896Y-11843650D02*
X8521944Y-11853174D01*
X8521944Y-11853174D02*
X8531467Y-11862698D01*
X8531467Y-11862698D02*
X8540991Y-11881746D01*
X8540991Y-11881746D02*
X8540991Y-11938888D01*
X8540991Y-11938888D02*
X8531467Y-11957936D01*
X8531467Y-11957936D02*
X8521944Y-11967460D01*
X8521944Y-11967460D02*
X8502896Y-11976984D01*
X8502896Y-11976984D02*
X8464801Y-11976984D01*
X8464801Y-11976984D02*
X8445753Y-11967460D01*
X8626705Y-11957936D02*
X8636229Y-11967460D01*
X8636229Y-11967460D02*
X8626705Y-11976984D01*
X8626705Y-11976984D02*
X8617182Y-11967460D01*
X8617182Y-11967460D02*
X8626705Y-11957936D01*
X8626705Y-11957936D02*
X8626705Y-11976984D01*
X8626705Y-11853174D02*
X8636229Y-11862698D01*
X8636229Y-11862698D02*
X8626705Y-11872222D01*
X8626705Y-11872222D02*
X8617182Y-11862698D01*
X8617182Y-11862698D02*
X8626705Y-11853174D01*
X8626705Y-11853174D02*
X8626705Y-11872222D01*
M02*
